<svg id="Calque_1" data-name="Calque 1" xmlns="http://www.w3.org/2000/svg" viewBox="0 0 27 13.5"><defs><style>.cls-1{fill:#fff;}.cls-2{fill:#f2c063;}</style></defs><path class="cls-1" d="M22.9,12.89a.92.92,0,0,0-.67.27.89.89,0,0,0-.27.68L22,25.27a.92.92,0,0,0,.93.94.88.88,0,0,0,.65-.27.93.93,0,0,0,.27-.68l-.06-11.43a1,1,0,0,0-.25-.68A.9.9,0,0,0,22.9,12.89Z" transform="translate(-11.05 -12.77)"/><path class="cls-1" d="M37.8,24.81a.86.86,0,0,0-.62-.24H32.93l4.79-6a1.17,1.17,0,0,0,.21-.36,1.26,1.26,0,0,0,0-.33.79.79,0,0,0-.22-.65.77.77,0,0,0-.6-.27H31.45a.88.88,0,0,0-.62.24.83.83,0,0,0-.25.61.86.86,0,0,0,.25.6.84.84,0,0,0,.62.25h4l-4.78,5.95a1,1,0,0,0-.23.39,2.21,2.21,0,0,0-.07.4.81.81,0,0,0,.22.57.79.79,0,0,0,.63.28h6A.83.83,0,0,0,37.8,26a.79.79,0,0,0,.25-.6A.81.81,0,0,0,37.8,24.81Z" transform="translate(-11.05 -12.77)"/><path class="cls-1" d="M27.46,16.85a.92.92,0,0,0-.93.94v7.54a.93.93,0,0,0,.27.68,1,1,0,0,0,1.33,0,1,1,0,0,0,.25-.68V17.79a.93.93,0,0,0-.25-.67A.9.9,0,0,0,27.46,16.85Z" transform="translate(-11.05 -12.77)"/><circle class="cls-2" cx="16.38" cy="1.08" r="0.95"/><path class="cls-1" d="M18.81,22.92a.9.9,0,0,0-.76.41h0a2.6,2.6,0,0,1-2.21,1.24h-.08a2.76,2.76,0,0,1-1.55-.44,3.08,3.08,0,0,1-1-1.22,4,4,0,0,1-.37-1.73,4,4,0,0,1,.37-1.72,3.06,3.06,0,0,1,1-1.19,2.69,2.69,0,0,1,1.55-.45,2.78,2.78,0,0,1,1.52.45,2.93,2.93,0,0,1,.83.82h0a.9.9,0,0,0,.79.47.92.92,0,0,0,.81-1.35h0a4.89,4.89,0,0,0-1.44-1.45c-.27-.17-.5-.27-.54-.3A4.47,4.47,0,0,0,16,16.12a3.54,3.54,0,0,0-1.21.21,4,4,0,0,0-1,.57,4.35,4.35,0,0,0-.75.73l-.05.09v-4a.91.91,0,0,0-.27-.68,1,1,0,0,0-1.33,0,.94.94,0,0,0-.26.68V25.29a.92.92,0,0,0,.26.67.94.94,0,0,0,.67.26.92.92,0,0,0,.93-.93v-.47a4,4,0,0,0,.66.63,4.41,4.41,0,0,0,1.12.59,3.68,3.68,0,0,0,1.33.23A4.24,4.24,0,0,0,17.55,26a4.3,4.3,0,0,0,.73-.38,4.51,4.51,0,0,0,1.27-1.27l0,0h0a.9.9,0,0,0,.14-.48A.91.91,0,0,0,18.81,22.92Z" transform="translate(-11.05 -12.77)"/><path class="cls-2" d="M19.36,20.29c-.52,0-1.76.95-1.76,1.47s1.25.44,1.78.44a1,1,0,1,0,0-1.91Z" transform="translate(-11.05 -12.77)"/></svg>