<svg id="Calque_1" data-name="Calque 1" xmlns="http://www.w3.org/2000/svg" viewBox="0 0 35.1 27.65"><defs><style>.cls-1{fill:#f2c063;}</style></defs><path class="cls-1" d="M37.87,36.5c-1.62,0-5.43,2.92-5.42,4.53s3.84,1.34,5.46,1.33a2.93,2.93,0,1,0,0-5.86Z" transform="translate(-32.45 -36.5)"/><path class="cls-1" d="M51.23,36.5c-1.61,0-5.43,2.92-5.41,4.53s3.84,1.34,5.46,1.33a2.93,2.93,0,0,0-.05-5.86Z" transform="translate(-32.45 -36.5)"/><path class="cls-1" d="M64.6,36.5c-1.62,0-5.43,2.92-5.42,4.53s3.85,1.34,5.46,1.33a2.93,2.93,0,1,0,0-5.86Z" transform="translate(-32.45 -36.5)"/><path class="cls-1" d="M37.87,47.38c-1.62,0-5.43,2.92-5.42,4.54s3.84,1.33,5.46,1.32a2.93,2.93,0,1,0,0-5.86Z" transform="translate(-32.45 -36.5)"/><path class="cls-1" d="M51.23,47.38c-1.61,0-5.43,2.92-5.41,4.54s3.84,1.33,5.46,1.32a2.93,2.93,0,0,0-.05-5.86Z" transform="translate(-32.45 -36.5)"/><path class="cls-1" d="M64.6,47.38c-1.62,0-5.43,2.92-5.42,4.54s3.85,1.33,5.46,1.32a2.93,2.93,0,1,0,0-5.86Z" transform="translate(-32.45 -36.5)"/><path class="cls-1" d="M37.87,58.27c-1.62,0-5.43,2.91-5.42,4.53s3.84,1.34,5.46,1.32a2.93,2.93,0,1,0,0-5.85Z" transform="translate(-32.45 -36.5)"/><path class="cls-1" d="M51.23,58.27c-1.61,0-5.43,2.91-5.41,4.53s3.84,1.34,5.46,1.32a2.93,2.93,0,0,0-.05-5.85Z" transform="translate(-32.45 -36.5)"/><path class="cls-1" d="M64.6,58.27c-1.62,0-5.43,2.91-5.42,4.53s3.85,1.34,5.46,1.32a2.93,2.93,0,1,0,0-5.85Z" transform="translate(-32.45 -36.5)"/></svg>