<svg id="Calque_1" data-name="Calque 1" xmlns="http://www.w3.org/2000/svg" viewBox="0 0 48.47 5.88"><defs><style>.cls-1{fill:#f2c063;}</style></defs><path class="cls-1" d="M26.41,41.82c-1.62,0-5.43,2.91-5.42,4.53s3.85,1.34,5.46,1.32a2.93,2.93,0,1,0,0-5.85Z" transform="translate(-20.99 -41.82)"/><path class="cls-1" d="M39.78,41.82c-1.62,0-5.43,2.91-5.42,4.53s3.84,1.34,5.46,1.32a2.93,2.93,0,1,0,0-5.85Z" transform="translate(-20.99 -41.82)"/><path class="cls-1" d="M53.15,41.82c-1.62,0-5.43,2.91-5.42,4.53s3.84,1.34,5.46,1.32a2.93,2.93,0,1,0,0-5.85Z" transform="translate(-20.99 -41.82)"/><path class="cls-1" d="M66.51,41.82c-1.61,0-5.43,2.91-5.41,4.53s3.84,1.34,5.46,1.32a2.93,2.93,0,1,0,0-5.85Z" transform="translate(-20.99 -41.82)"/></svg>