<svg id="Calque_1" data-name="Calque 1" xmlns="http://www.w3.org/2000/svg" viewBox="0 0 200 200"><defs><style>.cls-1{fill:#f54ea2;}.cls-2{fill:#df4090;}</style></defs><path class="cls-1" d="M159.61,31.93c1.84.26,3.74.57,5.72.91a37.66,37.66,0,0,1,5.91,1.5,26.14,26.14,0,0,1,5.47,2.57,15.82,15.82,0,0,1,4.4,4.1,16.57,16.57,0,0,1,3.33,10.43,99.73,99.73,0,0,1-1.13,13l-13,86.35A90.22,90.22,0,0,1,167.69,163a17,17,0,0,1-14.24,12.43,37.81,37.81,0,0,1-11.24-.24,32.62,32.62,0,0,1-10.15-2.91,17.62,17.62,0,0,1-6.15-5.13,19,19,0,0,1-3.77-10.85,67.43,67.43,0,0,1,.71-12.44l10.22-67.59L66.19,67a83.87,83.87,0,0,1-12.36-2.73,17.51,17.51,0,0,1-9.14-6.35,18.91,18.91,0,0,1-3.25-7.67,35.75,35.75,0,0,1,.17-11.68,32.64,32.64,0,0,1,2.9-10.15,17.64,17.64,0,0,1,5.14-6.15,18.26,18.26,0,0,1,10.74-3.57,75.07,75.07,0,0,1,12.78.82Z"/><path class="cls-2" d="M73.52,119.32a16.32,16.32,0,0,1-2.47-1.58,4.18,4.18,0,0,1-1.49-2.11,3.88,3.88,0,0,1-.11-1.83,7.31,7.31,0,0,1,.84-2.26,8.41,8.41,0,0,1,1.55-2.18,4.37,4.37,0,0,1,1.64-1,4,4,0,0,1,2.54.07,19.62,19.62,0,0,1,2.65,1.18L92.24,117l7.28-13.83a15.76,15.76,0,0,1,1.56-2.38,4.37,4.37,0,0,1,2.16-1.49,4.15,4.15,0,0,1,1.83-.11,7.4,7.4,0,0,1,2.26.84,8.89,8.89,0,0,1,2.1,1.48,3.89,3.89,0,0,1,.94,4.22,21.24,21.24,0,0,1-1.17,2.6L99.88,126a21.94,21.94,0,0,1-1.55,2.55,3.86,3.86,0,0,1-3.4,1.63,6.46,6.46,0,0,1-1.35-.27,8.72,8.72,0,0,1-1.29-.53l-1.18-.6Z"/></svg>