<svg id="Calque_1" data-name="Calque 1" xmlns="http://www.w3.org/2000/svg" viewBox="0 0 457.61 277.36"><defs><style>.cls-1{fill:#3ef8f4;}.cls-2{fill:#fe744f;}.cls-3{fill:#ff9e2b;}</style></defs><path class="cls-1" d="M167.41,237.48c-1.07-85.19,197-156.22,216.61-129.37,11.47,15.68-37,65.92-27.08,75.21,11.37,10.62,71.85-57.73,102.29-42.11,23.52,12.06,27.6,73.44,3,114.32-50.35,83.7-226.75,91.21-279.79,21.06C177.87,270.53,167.65,256.62,167.41,237.48Z" transform="translate(-21.26 -102.35)"/><path class="cls-2" d="M47.79,275.36q-3.21-.93-6.63-2a45.77,45.77,0,0,1-6.77-2.75,30.68,30.68,0,0,1-6.07-3.93,19,19,0,0,1-4.55-5.58,20,20,0,0,1-2.26-12.91A122.45,122.45,0,0,1,25,232.93L54.42,132.65a107.7,107.7,0,0,1,5.11-14,20.32,20.32,0,0,1,18.9-12.42,45.61,45.61,0,0,1,13.29,2.12,39.42,39.42,0,0,1,11.56,5.09,21.11,21.11,0,0,1,6.46,7.09,22.67,22.67,0,0,1,2.7,13.48,81,81,0,0,1-2.86,14.64L86.47,227.13,164.26,249a100.51,100.51,0,0,1,14.21,5.25,20.89,20.89,0,0,1,9.82,9,22.36,22.36,0,0,1,2.59,9.62q.33,5.49-2.09,13.82a39.42,39.42,0,0,1-5.09,11.56,21,21,0,0,1-7.09,6.46,21.86,21.86,0,0,1-13.33,2.48,89,89,0,0,1-15-3Z" transform="translate(-21.26 -102.35)"/><path class="cls-3" d="M317.18,375.62a46.41,46.41,0,0,1-7.25,3.35,11.43,11.43,0,0,1-7.06.33,11,11,0,0,1-4.37-2.43,20.34,20.34,0,0,1-4-5.26,22,22,0,0,1-2.72-6.76,11.66,11.66,0,0,1,.17-5.19,11,11,0,0,1,3.9-5.75,52.51,52.51,0,0,1,6.58-4.36l36.86-20.39-21.11-37.05A42.51,42.51,0,0,1,315,285a11.85,11.85,0,0,1-.24-7.16,11.06,11.06,0,0,1,2.43-4.37,20.34,20.34,0,0,1,5.26-4,23.36,23.36,0,0,1,6.49-2.66,10.61,10.61,0,0,1,11.07,4,55.09,55.09,0,0,1,4.26,6.49l26.92,47.36a62.39,62.39,0,0,1,3.58,7.32,10.33,10.33,0,0,1,.4,6.82,10,10,0,0,1-1.64,3.37,15.57,15.57,0,0,1-2.61,2.72,24.77,24.77,0,0,1-3.1,2.21c-1.08.64-2.12,1.24-3.13,1.81Z" transform="translate(-21.26 -102.35)"/></svg>